<svg xmlns="http://www.w3.org/2000/svg" width="256" height="256" viewBox="0 0 100 100"><rect width="100" height="100" rx="50" fill="#000000"></rect><path d="M18.08 44.14L18.08 44.14L14.98 44.01Q14.76 44.01 13.52 46.63Q12.29 49.26 11.39 51.73Q10.49 54.19 10.49 55.28Q10.49 56.37 11.18 56.37Q11.87 56.37 12.93 54.94L12.93 54.94Q13.04 54.81 13.15 54.81Q13.26 54.81 13.26 55.01Q13.26 55.20 12.96 55.73Q12.67 56.26 12.18 56.86Q11.70 57.47 10.93 57.94Q10.16 58.42 9.34 58.42L9.34 58.42Q8.13 58.42 8.13 56.74L8.13 56.74Q8.13 54.68 10.22 49.70L10.22 49.70Q11.72 46.21 12.97 43.90L12.97 43.90L12.69 43.90L10.42 43.85Q8.53 43.85 7.12 44.34L7.12 44.34Q6.35 44.60 5.90 45.12Q5.45 45.63 5.45 46.36L5.45 46.36L5.63 47.28Q5.63 47.50 5.41 47.50L5.41 47.50Q5.12 47.50 4.94 46.94Q4.77 46.38 4.77 45.96L4.77 45.96Q4.77 44.93 5.25 44.20Q5.74 43.48 6.57 43.10L6.57 43.10Q8.16 42.40 10.07 42.40Q11.98 42.40 14.40 42.63Q16.82 42.86 18.80 42.86Q20.78 42.86 21.38 42.25L21.38 42.25Q21.44 42.40 21.44 42.55L21.44 42.55Q21.44 43.28 20.52 43.71Q19.60 44.14 18.08 44.14ZM20.65 46.23L20.65 46.23L20.56 46.23Q20.12 46.23 19.72 46.60Q19.31 46.98 19.13 47.37L19.13 47.37Q18.56 47.15 18.56 46.58Q18.56 46.01 19.09 45.42Q19.62 44.84 20.10 44.84Q20.59 44.84 20.83 45.06Q21.07 45.28 21.07 45.62Q21.07 45.96 20.65 46.23ZM17.66 49.13L17.66 49.13L18.76 49.15L18.98 49.15Q18.63 49.42 18.04 50.58Q17.46 51.75 17.18 52.34Q16.89 52.94 16.53 53.95Q16.16 54.96 16.16 55.60Q16.16 56.24 16.58 56.24L16.58 56.24Q16.87 56.24 17.38 55.85Q17.90 55.47 18.23 55.04Q18.56 54.61 18.97 53.95Q19.38 53.29 19.67 52.81Q19.97 52.32 20.01 52.32L20.01 52.32Q20.15 52.32 20.15 52.73Q20.15 53.14 19.93 53.51L19.93 53.51Q19.11 54.87 18.44 55.79Q17.77 56.70 16.91 57.38Q16.05 58.06 15.35 58.06L15.35 58.06Q14.12 58.06 14.12 56.35L14.12 56.35Q14.12 53.69 15.94 50.45L15.94 50.45Q16.71 49.13 17.66 49.13ZM27.93 52.21L27.93 52.21Q28.07 52.21 28.07 52.64Q28.07 53.07 27.71 53.66Q27.36 54.26 27.02 54.79Q26.68 55.31 26.11 56.02Q25.54 56.72 24.99 57.14L24.99 57.14Q23.60 58.15 22.20 58.15Q20.81 58.15 19.95 57.44Q19.09 56.72 19.09 55.25L19.09 55.25Q19.09 53.00 20.74 51.09Q22.39 49.18 24.59 49.18L24.59 49.18Q25.58 49.18 26.17 49.69Q26.77 50.21 26.77 50.94L26.77 50.94Q26.77 52.17 25.60 52.92Q24.44 53.66 22.85 53.66L22.85 53.66Q21.93 53.66 21.49 53.42L21.49 53.42Q21.07 54.54 21.07 55.40L21.07 55.40Q21.07 57.25 22.63 57.25L22.63 57.25Q23.56 57.25 24.53 56.53Q25.51 55.82 26.21 54.93Q26.90 54.04 27.78 52.37L27.78 52.37Q27.87 52.21 27.93 52.21ZM25.60 50.47L25.60 50.47Q25.60 49.84 24.99 49.84L24.99 49.84Q24.13 49.84 23.07 50.89Q22.02 51.95 22.02 52.61L22.02 52.61Q22.02 53.05 22.85 53.05Q23.69 53.05 24.60 52.23Q25.51 51.42 25.60 50.47ZM32.91 49.09L32.91 49.09L34.03 49.11L34.25 49.11Q33.92 49.35 33.31 50.54Q32.71 51.73 32.41 52.33Q32.11 52.94 31.75 53.96Q31.39 54.98 31.39 55.62Q31.39 56.26 31.83 56.26L31.83 56.26Q32.11 56.24 32.63 55.85Q33.15 55.47 33.49 55.04Q33.83 54.61 34.24 53.94Q34.64 53.27 34.94 52.77Q35.24 52.28 35.28 52.28L35.28 52.28Q35.44 52.28 35.44 52.68Q35.44 53.09 35.22 53.47L35.22 53.47Q34.27 55.03 33.65 55.86Q33.04 56.70 32.17 57.39Q31.30 58.09 30.60 58.09L30.60 58.09Q29.34 58.09 29.34 56.24L29.34 56.24Q29.34 54.98 29.83 53.40Q30.31 51.82 31.26 50.34L31.26 50.34Q30.49 50.96 29.72 50.96L29.72 50.96Q29.47 50.96 29.21 50.85L29.21 50.85Q27.65 53.93 27.53 53.93Q27.41 53.93 27.41 53.56Q27.41 53.20 27.68 52.55Q27.96 51.90 28.27 51.31Q28.59 50.72 28.62 50.65L28.62 50.65Q27.82 50.25 27.82 49.37L27.82 49.37Q27.82 48.93 28.10 48.58Q28.37 48.23 28.86 48.23Q29.34 48.23 29.65 48.54L29.65 48.54Q29.61 48.67 29.61 48.93L29.61 48.93Q29.61 49.53 30.03 49.87Q30.46 50.21 31.08 50.21L31.08 50.21Q31.26 50.21 31.34 50.19L31.34 50.19Q32.11 49.09 32.91 49.09ZM61.46 42.58L61.46 42.58L62.83 42.58Q61.84 43.35 59.83 47.33L59.83 47.33Q56.86 53.31 56.86 55.93L56.86 55.93Q56.86 57.14 57.63 57.14L57.63 57.14Q57.99 57.14 58.49 56.85L58.49 56.85L58.51 56.85Q58.58 56.85 58.58 56.96L58.58 56.96Q58.58 57.38 57.47 57.76Q56.36 58.13 55.65 58.13L55.65 58.13Q54.18 58.13 54.18 56.52L54.18 56.52Q54.18 53.73 58.67 45.24L58.67 45.24Q57.79 46.07 57.48 46.43L57.48 46.43Q55.37 48.78 51.19 54.21L51.19 54.21Q50.31 55.34 49.98 55.62Q49.65 55.91 49.11 55.91Q48.57 55.91 47.87 55.58L47.87 55.58Q48.42 54.87 48.42 51.30Q48.42 47.72 47.98 44.80L47.98 44.80Q47.18 46.27 45.12 51.35Q43.05 56.44 43.05 57.73L43.05 57.73Q43.05 57.89 43.07 57.93L43.07 57.93L41.05 57.93Q42.30 54.72 44.63 49.46Q46.96 44.20 47.47 43.21L47.47 43.21Q45.47 43.21 43.56 44.01Q41.66 44.80 41.33 45.85L41.33 45.85Q41.31 45.92 41.24 45.92L41.24 45.92Q41.07 45.92 41.07 45.63L41.07 45.63Q41.07 45.59 41.24 45.04Q41.42 44.49 41.91 43.90Q42.41 43.30 43.07 43.02L43.07 43.02Q44.15 42.58 45.73 42.58L45.73 42.58L48.53 42.58Q49.19 42.58 49.57 42.80Q49.96 43.02 50.11 43.84Q50.26 44.67 50.41 47.65Q50.55 50.63 50.55 51.84Q50.55 53.05 50.51 53.49L50.51 53.49Q53.65 49.55 58.65 43.61L58.65 43.61Q59.53 42.58 61.46 42.58ZM68.48 49.13L68.48 49.13L69.58 49.15L69.80 49.15Q69.07 49.75 68.02 52.16Q66.96 54.57 66.96 55.67L66.96 55.67Q66.96 56.24 67.36 56.24L67.36 56.24Q68.63 56.24 70.61 52.48L70.61 52.48Q70.70 52.32 70.77 52.32L70.77 52.32Q70.90 52.32 70.90 52.73Q70.90 53.14 70.68 53.51L70.68 53.51Q67.97 58.06 66.15 58.06L66.15 58.06Q64.96 58.06 64.96 56.24L64.96 56.24Q64.96 54.87 65.42 53.55L65.42 53.55Q62.91 58.00 60.78 58.00L60.78 58.00Q59.31 58.00 59.31 55.97L59.31 55.97Q59.31 54.43 59.98 52.85Q60.65 51.27 61.90 50.15Q63.16 49.04 64.65 49.04L64.65 49.04Q65.36 49.04 65.97 49.36Q66.59 49.68 66.79 50.39L66.79 50.39Q67.03 49.88 67.53 49.51Q68.04 49.13 68.48 49.13ZM66.65 50.58L66.65 50.58Q66.43 49.88 65.62 49.88L65.62 49.88Q64.17 49.88 62.80 51.89Q61.44 53.91 61.44 55.49L61.44 55.49Q61.44 56.17 61.97 56.17L61.97 56.17Q62.54 56.17 63.31 55.46Q64.08 54.74 64.70 53.77L64.70 53.77Q66.06 51.62 66.65 50.58ZM79.70 53.55L79.70 53.55Q78.93 54.85 78.14 55.91L78.14 55.91Q76.44 58.11 74.79 58.11L74.79 58.11Q73.89 58.11 73.44 57.21Q72.99 56.30 72.99 55.20L72.99 55.20Q72.99 53.00 73.65 53.00L73.65 53.00Q74.68 53.00 75.56 52.53Q76.44 52.06 76.44 51.29L76.44 51.29Q76.44 50.67 75.74 50.67L75.74 50.67Q74.22 50.67 72.37 53.97L72.37 53.97Q72.20 54.30 71.64 55.50Q71.08 56.70 70.65 57.32Q70.22 57.93 69.80 57.93L69.80 57.93L68.46 57.93Q69.14 56.66 70.47 52.77Q71.80 48.89 72.44 47.57L72.44 47.57Q72.46 47.53 72.71 47.00Q72.97 46.47 73.07 46.27Q73.17 46.07 73.45 45.52Q73.74 44.97 73.91 44.71Q74.09 44.45 74.40 43.95Q74.71 43.46 74.95 43.19Q75.19 42.93 75.52 42.56Q75.85 42.20 76.14 42.03L76.14 42.03Q76.88 41.59 77.50 41.59L77.50 41.59Q78.71 41.59 78.71 42.69L78.71 42.69Q78.71 44.23 76.85 46.77Q74.99 49.31 72.66 51.57L72.66 51.57L72.26 52.67Q73.32 51.31 74.66 50.29Q76.00 49.26 77.13 49.26L77.13 49.26Q77.76 49.26 78.13 49.57Q78.49 49.88 78.49 50.41L78.49 50.41Q78.49 51.62 77.42 52.35Q76.36 53.09 74.97 53.31L74.97 53.31Q75.17 55.60 75.61 56.11L75.61 56.11Q75.83 56.35 76.16 56.35Q76.49 56.35 77.06 55.95Q77.63 55.56 77.99 55.08Q78.36 54.61 78.76 53.95Q79.17 53.29 79.47 52.81Q79.77 52.32 79.81 52.32L79.81 52.32Q79.94 52.32 79.94 52.75Q79.94 53.18 79.70 53.55ZM77.54 42.16L77.54 42.16Q76.31 42.16 73.23 50.08L73.23 50.08Q76.05 46.78 77.19 44.51L77.19 44.51Q77.85 43.32 77.85 42.55L77.85 42.55Q77.85 42.16 77.54 42.16ZM87.73 52.21L87.73 52.21Q87.86 52.21 87.86 52.64Q87.86 53.07 87.51 53.66Q87.16 54.26 86.82 54.79Q86.48 55.31 85.90 56.02Q85.33 56.72 84.78 57.14L84.78 57.14Q83.40 58.15 82.00 58.15Q80.60 58.15 79.74 57.44Q78.89 56.72 78.89 55.25L78.89 55.25Q78.89 53.00 80.54 51.09Q82.19 49.18 84.39 49.18L84.39 49.18Q85.38 49.18 85.97 49.69Q86.56 50.21 86.56 50.94L86.56 50.94Q86.56 52.17 85.40 52.92Q84.23 53.66 82.65 53.66L82.65 53.66Q81.72 53.66 81.28 53.42L81.28 53.42Q80.87 54.54 80.87 55.40L80.87 55.40Q80.87 57.25 82.43 57.25L82.43 57.25Q83.35 57.25 84.33 56.53Q85.31 55.82 86.00 54.93Q86.70 54.04 87.58 52.37L87.58 52.37Q87.66 52.21 87.73 52.21ZM85.40 50.47L85.40 50.47Q85.40 49.84 84.78 49.84L84.78 49.84Q83.92 49.84 82.87 50.89Q81.81 51.95 81.81 52.61L81.81 52.61Q81.81 53.05 82.65 53.05Q83.48 53.05 84.40 52.23Q85.31 51.42 85.40 50.47ZM92.70 49.09L92.70 49.09L93.82 49.11L94.04 49.11Q93.71 49.35 93.11 50.54Q92.50 51.73 92.21 52.33Q91.91 52.94 91.55 53.96Q91.18 54.98 91.18 55.62Q91.18 56.26 91.62 56.26L91.62 56.26Q91.91 56.24 92.43 55.85Q92.94 55.47 93.28 55.04Q93.63 54.61 94.03 53.94Q94.44 53.27 94.74 52.77Q95.03 52.28 95.08 52.28L95.08 52.28Q95.23 52.28 95.23 52.68Q95.23 53.09 95.01 53.47L95.01 53.47Q94.07 55.03 93.45 55.86Q92.83 56.70 91.96 57.39Q91.10 58.09 90.39 58.09L90.39 58.09Q89.14 58.09 89.14 56.24L89.14 56.24Q89.14 54.98 89.62 53.40Q90.11 51.82 91.05 50.34L91.05 50.34Q90.28 50.96 89.51 50.96L89.51 50.96Q89.27 50.96 89.01 50.85L89.01 50.85Q87.44 53.93 87.32 53.93Q87.20 53.93 87.20 53.56Q87.20 53.20 87.48 52.55Q87.75 51.90 88.07 51.31Q88.39 50.72 88.41 50.65L88.41 50.65Q87.62 50.25 87.62 49.37L87.62 49.37Q87.62 48.93 87.89 48.58Q88.17 48.23 88.65 48.23Q89.14 48.23 89.45 48.54L89.45 48.54Q89.40 48.67 89.40 48.93L89.40 48.93Q89.40 49.53 89.83 49.87Q90.26 50.21 90.88 50.21L90.88 50.21Q91.05 50.21 91.14 50.19L91.14 50.19Q91.91 49.09 92.70 49.09Z" fill="#fff"></path></svg>